<?xml version="1.0" encoding="utf-8"?><!-- Uploaded to: SVG Repo, www.svgrepo.com, Generator: SVG Repo Mixer Tools -->
<svg version="1.1" id="Uploaded to svgrepo.com" xmlns="http://www.w3.org/2000/svg" xmlns:xlink="http://www.w3.org/1999/xlink" 
	 width="800px" height="800px" viewBox="0 0 32 32" xml:space="preserve">
<style type="text/css">
	.bentblocks_een{fill:#0B1719;}
</style>
<path class="bentblocks_een" d="M26,4H6C4.9,4,4,4.9,4,6v16c0,1.1,0.9,2,2,2h6l4,4l4-4h6c1.1,0,2-0.9,2-2V6C28,4.9,27.1,4,26,4z
	 M26,22h-6.828L16,25.172L12.828,22H6V6h20V22z M12,16h-2v-2h2V16z M17,16h-2v-2h2V16z M22,16h-2v-2h2V16z"/>
</svg>