<?xml version="1.0" encoding="utf-8"?>

<!DOCTYPE svg PUBLIC "-//W3C//DTD SVG 1.1//EN" "http://www.w3.org/Graphics/SVG/1.1/DTD/svg11.dtd">
<!-- Uploaded to: SVG Repo, www.svgrepo.com, Generator: SVG Repo Mixer Tools -->
<svg fill="#000000" version="1.1" id="Layer_1" xmlns="http://www.w3.org/2000/svg" xmlns:xlink="http://www.w3.org/1999/xlink" 
	 width="800px" height="800px" viewBox="0 0 72 72" enable-background="new 0 0 72 72" xml:space="preserve">
<g>
	<path d="M61.068,11H55V5c0-1.104-0.896-2-2-2s-2,0.896-2,2v6H20V5c0-1.104-0.896-2-2-2s-2,0.896-2,2v6h-5.068
		C7.104,11,4,14.104,4,17.932v44.136C4,65.896,7.104,69,10.932,69h50.136C64.896,69,68,65.896,68,62.068V17.932
		C68,14.104,64.896,11,61.068,11z M10.932,15H16v5c0,1.104,0.896,2,2,2s2-0.895,2-2v-5h31v5c0,1.104,0.896,2,2,2s2-0.895,2-2v-5
		h6.068C62.688,15,64,16.313,64,17.932V28H8V17.932C8,16.313,9.313,15,10.932,15z M61.068,65H10.932C9.313,65,8,63.688,8,62.068V30
		h56v32.068C64,63.688,62.688,65,61.068,65z"/>
	<path d="M59.896,56.641c-0.553,0-1.103,0.447-1.103,1c0,2.189-0.7,2.359-1.69,2.359h-6.31c-0.553,0-1,0.447-1,1s0.447,1,1,1h6.31
		c2.295,0,3.631-1.287,3.779-3.828C60.893,58.115,61,58.059,61,58v-0.359C61,57.088,60.45,56.641,59.896,56.641z"/>
	<path d="M59.875,54.411c0.26,0,0.52-0.112,0.71-0.291c0.181-0.188,0.29-0.449,0.29-0.709c0-0.263-0.109-0.522-0.29-0.711
		c-0.38-0.369-1.05-0.369-1.42,0c-0.181,0.19-0.29,0.448-0.29,0.711c0,0.271,0.109,0.521,0.29,0.709
		C59.354,54.3,59.604,54.411,59.875,54.411z"/>
	<path d="M18.795,37h-1c-0.553,0-1,0.447-1,1s0.447,1,1,1h1c0.553,0,1-0.447,1-1S19.348,37,18.795,37z"/>
	<path d="M25.795,37h-1c-0.553,0-1,0.447-1,1s0.447,1,1,1h1c0.553,0,1-0.447,1-1S26.348,37,25.795,37z"/>
	<path d="M32.795,37h-1c-0.553,0-1,0.447-1,1s0.447,1,1,1h1c0.553,0,1-0.447,1-1S33.348,37,32.795,37z"/>
	<path d="M38.795,37h-1c-0.553,0-1,0.447-1,1s0.447,1,1,1h1c0.553,0,1-0.447,1-1S39.348,37,38.795,37z"/>
	<path d="M45.795,37h-1c-0.553,0-1,0.447-1,1s0.447,1,1,1h1c0.553,0,1-0.447,1-1S46.348,37,45.795,37z"/>
	<path d="M51.795,39h1c0.553,0,1-0.447,1-1s-0.447-1-1-1h-1c-0.553,0-1,0.447-1,1S51.242,39,51.795,39z"/>
	<path d="M18.795,43h-1c-0.553,0-1,0.447-1,1s0.447,1,1,1h1c0.553,0,1-0.447,1-1S19.348,43,18.795,43z"/>
	<path d="M25.795,43h-1c-0.553,0-1,0.447-1,1s0.447,1,1,1h1c0.553,0,1-0.447,1-1S26.348,43,25.795,43z"/>
	<path d="M32.795,43h-1c-0.553,0-1,0.447-1,1s0.447,1,1,1h1c0.553,0,1-0.447,1-1S33.348,43,32.795,43z"/>
	<path d="M38.795,43h-1c-0.553,0-1,0.447-1,1s0.447,1,1,1h1c0.553,0,1-0.447,1-1S39.348,43,38.795,43z"/>
	<path d="M45.795,43h-1c-0.553,0-1,0.447-1,1s0.447,1,1,1h1c0.553,0,1-0.447,1-1S46.348,43,45.795,43z"/>
	<path d="M51.795,45h1c0.553,0,1-0.447,1-1s-0.447-1-1-1h-1c-0.553,0-1,0.447-1,1S51.242,45,51.795,45z"/>
	<path d="M18.795,55h-1c-0.553,0-1,0.447-1,1s0.447,1,1,1h1c0.553,0,1-0.447,1-1S19.348,55,18.795,55z"/>
	<path d="M25.795,55h-1c-0.553,0-1,0.447-1,1s0.447,1,1,1h1c0.553,0,1-0.447,1-1S26.348,55,25.795,55z"/>
	<path d="M32.795,55h-1c-0.553,0-1,0.447-1,1s0.447,1,1,1h1c0.553,0,1-0.447,1-1S33.348,55,32.795,55z"/>
	<path d="M38.795,55h-1c-0.553,0-1,0.447-1,1s0.447,1,1,1h1c0.553,0,1-0.447,1-1S39.348,55,38.795,55z"/>
	<path d="M18.795,49h-1c-0.553,0-1,0.447-1,1s0.447,1,1,1h1c0.553,0,1-0.447,1-1S19.348,49,18.795,49z"/>
	<path d="M25.795,49h-1c-0.553,0-1,0.447-1,1s0.447,1,1,1h1c0.553,0,1-0.447,1-1S26.348,49,25.795,49z"/>
	<path d="M32.795,49h-1c-0.553,0-1,0.447-1,1s0.447,1,1,1h1c0.553,0,1-0.447,1-1S33.348,49,32.795,49z"/>
	<path d="M38.795,49h-1c-0.553,0-1,0.447-1,1s0.447,1,1,1h1c0.553,0,1-0.447,1-1S39.348,49,38.795,49z"/>
	<path d="M45.795,49h-1c-0.553,0-1,0.447-1,1s0.447,1,1,1h1c0.553,0,1-0.447,1-1S46.348,49,45.795,49z"/>
	<path d="M51.795,51h1c0.553,0,1-0.447,1-1s-0.447-1-1-1h-1c-0.553,0-1,0.447-1,1S51.242,51,51.795,51z"/>
</g>
</svg>